<?xml version="1.0" encoding="utf-8"?>
<!-- Generator: Adobe Illustrator 25.0.1, SVG Export Plug-In . SVG Version: 6.00 Build 0)  -->
<svg version="1.1" id="Calque_1" xmlns="http://www.w3.org/2000/svg" xmlns:xlink="http://www.w3.org/1999/xlink" x="0px" y="0px"
	 viewBox="0 0 141.7 141.7" style="enable-background:new 0 0 141.7 141.7;" xml:space="preserve">
<style type="text/css">
	.st0{fill-rule:evenodd;clip-rule:evenodd;fill:#392814;}
	.st1{fill:#392814;}
	.st2{font-family:'Kuro-Regular';}
	.st3{font-size:3.6756px;}
</style>
<g>
	<polygon class="st0" points="51.4,31.9 51.3,31.8 51.3,38.2 54.8,41.2 54.8,34.8 	"/>
	<polygon class="st0" points="50.1,30.8 46.6,27.8 46.6,34.3 50,37.2 50.1,37.3 	"/>
	<polygon class="st0" points="77.6,65.1 77.5,65.2 77.5,58.8 81.1,55.8 81.1,62.2 	"/>
	<polygon class="st0" points="76.4,66.2 72.8,69.2 72.8,62.7 76.3,59.8 76.4,59.7 	"/>
	<polygon class="st0" points="66.7,61.5 63.2,64.5 63.2,58.1 66.6,55.2 66.7,55.1 	"/>
	<path class="st0" d="M45.5,41.1v9.2l1.3-1.1l4.2-3.5L45.5,41.1z M54.8,56.9L73,41.6V48l-3.4,2.8v7.3l11.7-9.8v6.4L67.9,66v-6.1
		v-0.3v-7.3L53.1,64.8v-6.4v-0.4v-7.7l-9.3,7.8v-6.4V38.5h0v-0.2v-5.1v-1.8h1.4h0.3v3.2l9.3,7.8v0v0v5.8v0.6V56.9z"/>
	<polygon class="st0" points="97,42.6 87.8,34.8 87.8,31.6 87.5,31.6 86.1,31.6 86.1,33.4 86.1,38.5 86.1,39.8 93.2,45.8 84.7,52.9 
		84.7,46.7 84.5,46.7 83.1,46.7 83.1,54.3 83.1,56.4 83.1,60.7 97,49 	"/>
	<polygon class="st0" points="69.8,73.6 87.3,58.9 89.7,56.9 89.7,63.3 87.3,65.3 69.8,80 67.4,82 67.4,78.1 67.4,75.6 67.4,68.4 
		68.8,68.4 69.1,68.4 69.1,74.2 	"/>
</g>
<path class="st1" d="M103.1,105.7l9.5-17.5h3.1l9.7,17.5h-3.2l-2.2-4.3h-11.8l-2.2,4.3H103.1z M109.5,99.2h9.4l-4.7-8.9L109.5,99.2z
	 M80.6,105.7V88.2h14.1c1.3,0,2.2,0.3,2.8,0.8c0.6,0.5,0.9,1.4,0.9,2.6v2c0,0.9-0.2,1.6-0.7,2.1c-0.5,0.5-1.2,0.8-2.2,0.9
	c1,0.1,1.7,0.5,2.2,1c0.5,0.6,0.8,1.4,0.8,2.4v2.2c0,1.2-0.4,2-1.2,2.6c-0.8,0.6-2,0.8-3.6,0.8H80.6z M95.4,93.9v-1.8
	c0-0.6-0.1-1-0.4-1.2c-0.2-0.2-0.7-0.3-1.4-0.3H83.5v4.8h10.1c0.7,0,1.1-0.1,1.4-0.3C95.3,94.8,95.4,94.4,95.4,93.9z M95.5,101.2
	v-1.5c0-0.8-0.1-1.3-0.4-1.6c-0.3-0.3-0.8-0.5-1.5-0.5H83.5v5.6h10.1c0.7,0,1.2-0.1,1.5-0.4C95.4,102.6,95.5,102,95.5,101.2z
	 M68.6,105.7V88.2h2.9v17.5H68.6z M42.9,105.7V88.2h14.1c1.3,0,2.2,0.3,2.8,0.8c0.6,0.5,0.9,1.4,0.9,2.6v3.9c0,1.2-0.3,2-0.9,2.6
	c-0.6,0.5-1.5,0.8-2.8,0.8h-2.6l8,6.8H58l-7.1-6.8h-5.1v6.8H42.9z M55.8,90.5h-10v6.1h10c0.7,0,1.2-0.1,1.5-0.4
	c0.3-0.3,0.4-0.7,0.4-1.4v-2.5c0-0.7-0.1-1.1-0.4-1.4C57,90.6,56.5,90.5,55.8,90.5z M25.1,88.2c1.6,0,2.9,0.1,4,0.3
	c1.1,0.2,2,0.6,2.7,1c1.1,0.7,2,1.8,2.7,3c0.6,1.3,1,2.7,1,4.2c0,1.6-0.3,3.1-0.9,4.4c-0.6,1.3-1.5,2.3-2.7,3.1
	c-0.7,0.5-1.6,0.8-2.7,1c-1.1,0.2-2.4,0.3-4,0.3h-9.6V88.2H25.1z M24.7,90.6h-6.3v12.7h6.3c2.8,0,4.8-0.5,6-1.5
	c1.2-1,1.8-2.6,1.8-4.9c0-2.2-0.6-3.8-1.8-4.8C29.5,91.1,27.5,90.6,24.7,90.6z"/>
<g>
	<path class="st1" d="M69.6,111.4v-2.2h2.2v0.3h-1.8v0.6H71v0.3h-1.1v0.7h1.8v0.3H69.6z M66.3,111.4v-2.2h1.8c0.2,0,0.3,0,0.4,0.1
		c0.1,0.1,0.1,0.2,0.1,0.3v0.5c0,0.2,0,0.3-0.1,0.3c-0.1,0.1-0.2,0.1-0.4,0.1h-0.3l1,0.9h-0.6l-0.9-0.9h-0.7v0.9H66.3z M67.9,109.5
		h-1.3v0.8h1.3c0.1,0,0.2,0,0.2-0.1c0,0,0.1-0.1,0.1-0.2v-0.3c0-0.1,0-0.1-0.1-0.2C68.1,109.5,68,109.5,67.9,109.5z M63.1,109.2v1.9
		h1.6v-1.9h0.4v1.7c0,0.2,0,0.3-0.1,0.4c-0.1,0.1-0.2,0.1-0.4,0.1h-1.3c-0.2,0-0.3,0-0.4-0.1c-0.1-0.1-0.1-0.2-0.1-0.4v-1.7H63.1z
		 M61,109.5v1.9h-0.4v-1.9h-1v-0.3h2.4v0.3H61z M57.8,111.4v-2.2h0.4v1.9h1.7v0.3H57.8z M54.6,109.2v1.9h1.6v-1.9h0.4v1.7
		c0,0.2,0,0.3-0.1,0.4c-0.1,0.1-0.2,0.1-0.4,0.1h-1.3c-0.2,0-0.3,0-0.4-0.1c-0.1-0.1-0.1-0.2-0.1-0.4v-1.7H54.6z M52.9,109.5h-1.6
		v1.6h1.6v-0.6l0.4,0.1v0.3c0,0.2,0,0.3-0.1,0.4c-0.1,0.1-0.2,0.1-0.4,0.1h-1.3c-0.2,0-0.3,0-0.4-0.1c-0.1-0.1-0.1-0.2-0.1-0.4v-1.2
		c0-0.2,0-0.3,0.1-0.4c0.1-0.1,0.2-0.1,0.4-0.1h1.3c0.2,0,0.3,0,0.4,0.1c0.1,0.1,0.1,0.2,0.1,0.4v0.2l-0.4,0.1V109.5z M45.7,109.5
		v1.9h-0.4v-1.9h-1v-0.3h2.4v0.3H45.7z M41.5,111.4v-2.2h1.8c0.2,0,0.3,0,0.4,0.1c0.1,0.1,0.1,0.2,0.1,0.3v0.5c0,0.2,0,0.3-0.1,0.3
		c-0.1,0.1-0.2,0.1-0.4,0.1H43l1,0.9h-0.6l-0.9-0.9h-0.7v0.9H41.5z M43.2,109.4h-1.3v0.8h1.3c0.1,0,0.2,0,0.2-0.1
		c0,0,0.1-0.1,0.1-0.2v-0.3c0-0.1,0-0.1-0.1-0.2C43.3,109.5,43.3,109.4,43.2,109.4z M37.9,111.4l1.2-2.2h0.4l1.2,2.2h-0.4l-0.3-0.6
		h-1.5l-0.3,0.6H37.9z M38.7,110.6h1.2l-0.6-1.1L38.7,110.6z"/>
	<path class="st1" d="M98.5,111.4v-2.2h0.2l1.7,1.5c0,0,0.1,0.1,0.1,0.1c0,0,0.1,0.1,0.1,0.2c0-0.1,0-0.1,0-0.2c0-0.1,0-0.2,0-0.3
		v-1.2h0.3v2.2h-0.2l-1.7-1.6c0,0,0,0,0,0c-0.1-0.1-0.1-0.1-0.2-0.2c0,0.1,0,0.1,0,0.2c0,0.1,0,0.2,0,0.3v1.3H98.5z M94.8,109.7
		c0-0.2,0-0.3,0.1-0.4c0.1-0.1,0.2-0.1,0.4-0.1h1.6c0.2,0,0.3,0,0.4,0.1c0.1,0.1,0.1,0.2,0.1,0.4v1.2c0,0.2,0,0.3-0.1,0.4
		c-0.1,0.1-0.2,0.1-0.4,0.1h-1.6c-0.2,0-0.3,0-0.4-0.1c-0.1-0.1-0.1-0.2-0.1-0.4V109.7z M95.2,111.1H97v-1.6h-1.9V111.1z
		 M93.3,111.4v-2.2h0.4v2.2H93.3z M91.6,109.5v1.9h-0.4v-1.9h-1v-0.3h2.4v0.3H91.6z M89.2,111.4v-2.2h0.4v2.2H89.2z M86.9,109.2
		c0.2,0,0.4,0,0.5,0c0.1,0,0.3,0.1,0.3,0.1c0.1,0.1,0.3,0.2,0.3,0.4c0.1,0.2,0.1,0.3,0.1,0.5c0,0.2,0,0.4-0.1,0.6
		c-0.1,0.2-0.2,0.3-0.3,0.4c-0.1,0.1-0.2,0.1-0.3,0.1c-0.1,0-0.3,0-0.5,0h-1.2v-2.2H86.9z M86.9,109.5h-0.8v1.6h0.8
		c0.4,0,0.6-0.1,0.8-0.2c0.2-0.1,0.2-0.3,0.2-0.6c0-0.3-0.1-0.5-0.2-0.6C87.5,109.6,87.2,109.5,86.9,109.5z M82.1,111.4l1.2-2.2h0.4
		l1.2,2.2h-0.4l-0.3-0.6h-1.5l-0.3,0.6H82.1z M82.9,110.6h1.2l-0.6-1.1L82.9,110.6z M79.1,111.4v-2.2h1.8c0.2,0,0.3,0,0.4,0.1
		c0.1,0.1,0.1,0.2,0.1,0.3v0.5c0,0.2,0,0.3-0.1,0.3c-0.1,0.1-0.2,0.1-0.4,0.1h-0.3l1,0.9h-0.6l-0.9-0.9h-0.7v0.9H79.1z M80.8,109.5
		h-1.3v0.8h1.3c0.1,0,0.2,0,0.2-0.1c0,0,0.1-0.1,0.1-0.2v-0.3c0-0.1,0-0.1-0.1-0.2C81,109.5,80.9,109.5,80.8,109.5z M77.5,109.5v1.9
		h-0.4v-1.9h-1v-0.3h2.4v0.3H77.5z"/>
	<text transform="matrix(1 0 0 1 47.9575 111.3613)" class="st1 st2 st3">-</text>
	<text transform="matrix(1 0 0 1 73.0249 111.3096)" class="st1 st2 st3">-</text>
</g>
</svg>
